<?xml version="1.0" ?><svg data-name="Layer 2" id="Layer_2" viewBox="0 0 272 272" xmlns="http://www.w3.org/2000/svg"><defs><style>.cls-1{fill:#704220;}.cls-2{fill:#009788;}</style></defs><title/><circle class="cls-1" cx="168" cy="104" r="16"/><circle class="cls-1" cx="196" cy="114" r="16"/><circle class="cls-1" cx="116" cy="104" r="16"/><circle class="cls-1" cx="52" cy="122" r="16"/><circle class="cls-1" cx="80" cy="114" r="16"/><circle class="cls-1" cx="224" cy="118" r="16"/><circle class="cls-1" cx="108" cy="122" r="16"/><circle class="cls-1" cx="140" cy="114" r="16"/><circle class="cls-1" cx="168" cy="126" r="16"/><path class="cls-2" d="M16.28,174H255.72a8,8,0,0,0,7.6-11.15l-17.71-40A8.28,8.28,0,0,0,238,118H34a8.28,8.28,0,0,0-7.6,4.85l-17.71,40A8,8,0,0,0,16.28,174Z"/></svg>